<?xml version="1.0" standalone="no"?>
<!DOCTYPE svg PUBLIC "-//W3C//DTD SVG 20010904//EN"
 "http://www.w3.org/TR/2001/REC-SVG-20010904/DTD/svg10.dtd">
<svg version="1.0" xmlns="http://www.w3.org/2000/svg"
 width="300.000000pt" height="300.000000pt" viewBox="0 0 300.000000 300.000000"
 preserveAspectRatio="xMidYMid meet">
<metadata>
Created by potrace 1.10, written by Peter Selinger 2001-2011
</metadata>
<g transform="translate(0.000000,300.000000) scale(0.100000,-0.100000)"
fill="#000000" stroke="none">
<path d="M1050 2688 c-49 -22 -85 -36 -110 -44 -14 -3 -27 -10 -30 -13 -6 -8
-124 -52 -222 -83 -38 -12 -68 -25 -68 -30 0 -4 -7 -8 -15 -8 -8 0 -29 -7 -47
-15 -18 -8 -78 -31 -133 -51 -118 -43 -155 -75 -155 -134 0 -21 6 -45 14 -52
7 -8 16 -25 20 -38 6 -23 52 -121 96 -210 10 -19 21 -50 25 -67 3 -18 10 -33
15 -33 4 0 11 -12 14 -26 4 -15 23 -59 42 -98 19 -39 34 -77 34 -83 0 -7 4
-13 8 -13 5 0 17 -27 27 -60 10 -32 22 -57 26 -54 5 3 9 -2 9 -10 0 -9 3 -16
6 -16 17 0 114 32 119 40 2 4 34 16 70 25 82 23 91 42 42 90 -86 84 -98 184
-29 245 53 47 136 82 208 88 78 6 137 -23 155 -75 6 -18 14 -33 19 -33 5 0 12
-31 16 -70 5 -59 10 -70 25 -70 21 0 91 24 131 46 14 8 33 14 42 14 9 0 16 5
16 10 0 6 8 10 18 10 39 0 46 15 32 64 -7 25 -17 46 -21 46 -5 0 -9 7 -9 15 0
9 -9 33 -20 55 -11 22 -20 41 -20 44 0 2 19 7 43 11 54 9 124 32 150 50 39 27
67 93 67 156 0 32 -4 59 -8 59 -4 0 -13 20 -20 44 -6 24 -17 50 -25 57 -7 8
-22 28 -34 44 -27 39 -99 75 -149 75 -50 0 -120 -26 -166 -62 -20 -15 -39 -28
-41 -28 -3 0 -7 14 -11 31 -3 16 -13 37 -21 45 -8 9 -15 25 -15 37 0 23 -19
60 -21 42 0 -5 -4 1 -8 15 -8 29 -49 37 -91 18z m76 -83 c10 -30 21 -55 26
-55 4 0 13 -20 19 -45 15 -59 38 -66 88 -26 21 17 44 31 50 31 6 0 11 4 11 8
0 17 79 35 127 29 41 -4 54 -11 91 -52 23 -26 45 -59 49 -74 3 -14 11 -29 17
-33 6 -4 12 -37 14 -75 3 -66 2 -69 -30 -104 -37 -41 -93 -63 -181 -74 l-58
-7 7 -32 c3 -17 22 -61 40 -98 41 -82 42 -96 7 -104 -16 -4 -51 -18 -80 -31
-28 -12 -56 -23 -61 -23 -5 0 -12 18 -16 39 -21 131 -97 201 -221 201 -34 0
-65 -4 -70 -9 -6 -4 -34 -16 -63 -25 -57 -18 -131 -64 -132 -82 0 -6 -9 -21
-19 -33 -15 -18 -19 -36 -18 -82 1 -33 7 -63 14 -67 6 -4 14 -19 18 -34 4 -14
18 -36 31 -49 31 -29 30 -36 -6 -44 -16 -4 -30 -10 -30 -14 0 -4 -21 -13 -47
-20 -27 -7 -56 -15 -65 -18 -12 -4 -20 5 -29 36 -7 23 -16 41 -20 41 -5 0 -13
18 -19 39 -6 22 -33 85 -60 140 -27 55 -52 111 -56 125 -3 15 -10 28 -14 31
-5 3 -16 30 -25 60 -10 30 -21 55 -25 55 -4 0 -13 19 -20 43 -8 23 -17 44 -20
47 -3 3 -14 24 -24 47 -24 55 -16 87 26 102 18 7 47 19 63 26 37 17 104 43
220 86 50 18 92 36 95 40 3 4 34 16 70 27 88 28 214 75 220 82 6 7 61 28 77
29 7 1 20 -24 29 -54z"/>
<path d="M1767 2143 c-10 -9 -9 -261 1 -266 4 -3 25 1 47 9 56 19 166 18 209
-3 60 -28 90 -143 66 -256 -15 -73 -44 -104 -110 -122 -67 -18 -120 -10 -192
26 -10 5 -20 9 -23 9 -3 0 -5 -56 -5 -125 l0 -125 -105 0 c-104 0 -117 4 -93
28 8 8 13 42 12 90 0 87 -22 137 -71 163 -16 8 -31 18 -34 22 -3 5 -41 13 -83
19 -80 12 -196 -1 -223 -24 -7 -6 -13 -8 -13 -4 0 13 -63 -50 -77 -77 -17 -33
-19 -157 -3 -186 5 -11 10 -22 10 -25 0 -3 -55 -7 -122 -8 l-123 -3 -3 -394
c-1 -217 1 -397 5 -400 5 -3 17 -23 27 -44 11 -20 29 -40 40 -43 12 -2 412 -3
889 -2 805 3 869 4 878 20 5 9 16 24 24 32 13 13 15 123 15 823 -1 792 -1 808
-21 832 -11 14 -37 27 -62 32 -50 10 -851 12 -860 2z m873 -48 l30 -16 0 -394
0 -395 -124 0 c-69 0 -127 -4 -130 -8 -3 -5 2 -22 11 -38 8 -16 18 -59 20 -96
5 -60 3 -72 -18 -103 -35 -51 -67 -60 -204 -60 -114 0 -123 1 -152 25 -38 30
-53 67 -53 129 0 52 22 135 33 125 4 -4 7 0 7 9 0 9 -3 16 -7 16 -5 -1 -65 -1
-135 0 l-128 1 0 96 c0 88 2 95 18 89 30 -13 177 -15 216 -3 22 7 44 23 54 40
9 15 19 28 23 28 18 0 41 90 41 160 0 118 -32 181 -113 224 -29 15 -50 18
-120 14 -46 -3 -92 -9 -101 -13 -16 -6 -18 1 -18 89 l0 96 410 0 c349 0 415
-2 440 -15z m-1238 -526 c59 -12 102 -43 119 -86 14 -38 11 -126 -7 -168 -26
-62 -21 -65 121 -62 l125 2 0 -94 0 -93 -27 8 c-16 4 -65 8 -109 8 -77 1 -84
-1 -132 -33 -52 -36 -64 -58 -81 -153 -9 -49 0 -126 20 -181 15 -41 79 -94
131 -107 38 -11 136 -2 181 15 15 7 17 -1 17 -89 l0 -96 -418 0 -419 0 -21 23
c-22 23 -22 25 -20 406 l3 383 118 -1 c135 0 138 2 113 76 -31 91 -9 193 48
222 56 29 152 37 238 20z m590 -320 c0 -2 -5 -22 -12 -43 -17 -53 -7 -138 21
-178 13 -18 26 -34 30 -36 4 -2 17 -11 29 -22 28 -24 142 -44 211 -37 95 10
120 20 172 67 l42 39 0 88 c0 48 -2 96 -5 106 -5 17 4 18 93 20 l97 2 0 -391
0 -392 -25 -16 c-21 -14 -74 -16 -440 -16 l-415 0 0 114 c0 63 -4 117 -8 120
-5 3 -26 -1 -48 -9 -47 -17 -152 -19 -191 -4 -47 18 -83 67 -83 113 0 14 -4
26 -10 26 -6 0 -10 26 -10 58 0 40 3 53 10 42 8 -12 10 -9 10 12 0 69 48 123
116 134 54 8 141 -2 176 -21 15 -7 29 -11 32 -7 3 3 6 56 6 117 0 61 2 114 4
116 5 5 195 3 198 -2z"/>
<path d="M2603 1960 c0 -41 2 -58 4 -37 2 20 2 54 0 75 -2 20 -4 3 -4 -38z"/>
<path d="M1847 653 c-4 -3 -7 -44 -7 -89 0 -96 1 -98 103 -92 78 4 77 22 0 26
l-63 3 0 79 c0 60 -3 80 -13 80 -8 0 -17 -3 -20 -7z"/>
</g>
</svg>
